<svg version="1.1" xmlns="http://www.w3.org/2000/svg" viewBox="0 0 460 460"><polygon style="fill:#FB992D;" points="201.48,173.196 85.295,85.295 64.082,134.792 138.077,208.788"/><polygon style="fill:#FFD488;" points="387.486,387.486 445.858,431.716 414.583,448.849 366.273,436.984"/><polygon style="fill:#FFEAC3;" points="436.984,366.273 448.849,414.583 438.787,438.787 387.486,387.486"/><polygon style="fill:#FB992D;" points="265.356,237.072 230.001,300.711 366.273,436.984 401.628,401.628"/><path style="fill:#FA6121;" d="M14.584,85.295l28.284,28.284l63.64-35.355l-91.924-63.64C-4.861,34.03-4.861,65.849,14.584,85.295z"/><path style="fill:#FB7B46;" d="M85.295,14.584l28.284,28.284L92.366,92.366L14.584,14.584C34.03-4.861,65.849-4.861,85.295,14.584z"/><polygon style="fill:#FFB739;" points="85.295,85.295 401.628,401.628 436.984,366.273 134.792,64.082"/><polygon style="fill:#233145;" points="431.716,431.716 452.929,438.787 460,460 414.583,448.849"/><polygon style="fill:#466289;" points="448.849,414.583 460,460 431.716,431.716"/><polygon style="fill:#233145;" points="362.425,168.287 93.724,436.987 58.369,401.632 327.069,104.647"/><polygon style="fill:#BEC8D6;" points="460,28.274 431.726,0 369.495,62.22 397.78,90.505"/><polygon style="fill:#466289;" points="433.135,97.576 383.638,147.074 327.069,104.647 397.78,62.221"/><polygon style="fill:#466289;" points="341.212,118.789 58.369,401.632 23.014,366.277 291.714,97.576"/><polygon style="fill:#6B81A1;" points="397.78,62.221 334.141,125.86 312.927,76.363 362.425,26.865"/></svg>
