<svg width="100%" height="100%" viewBox="0 0 256 256" xmlns="http://www.w3.org/2000/svg"><g><path d="M127.06,256C58.85,255.53-0.46,198.92,0,127C0.44,57.8,57.95-0.47,129.11,0C198.27,0.46,256.61,57.87,256,128.19C256.57,197.88,197.93,256.49,127.06,256Z" fill="#FFFFFF"/><path d="M127.18,239C68.03,238.59,16.6,189.5,17,127.13C17.39,67.12,67.26,16.59,128.96,17C188.93,17.4,239.53,67.18,239,128.17C239.49,188.6,188.65,239.42,127.18,239Z" fill="#49A32B"/><path d="M169.33,127.96C169.04,133.25,164.42,137.64,159.87,136.87C154.75,136.88,150.66,132.79,150.65,127.75C150.82,122.69,155.02,118.7,160.08,118.79C165.13,118.81,169.6,123.08,169.33,127.96ZM88.2,179.22C90.1,179.28,92.01,179.24,94.2,179.24V193.02C80.57,195.33,69.33,191.46,66.58,179.93C65.64,175.69,65.05,171.38,64.84,167.04C64.55,162.45,65.06,157.81,64.71,153.23C63.74,140.61,62.1,136.31,50,135.71V120.01C50.87,119.81,51.75,119.66,52.63,119.56C59.27,119.24,62.06,117.2,63.55,110.67C64.22,107,64.62,103.28,64.74,99.54C65.27,92.33,65.08,84.99,66.28,77.89C68.02,67.62,74.4,62.64,84.92,62.08C87.92,61.92,90.93,62.05,94.32,62.05V76.14C92.92,76.24,91.64,76.45,90.37,76.41C81.79,76.15,81.35,79.07,80.72,86.17C80.33,90.63,80.87,95.16,80.57,99.62C80.25,104.07,79.65,108.5,78.79,112.87C77.55,119.21,73.65,123.92,68.25,127.92C78.73,134.75,79.93,145.35,80.61,156.11C80.97,161.9,80.81,167.72,81.39,173.48C81.85,177.94,83.59,179.08,88.2,179.22ZM97.04,118.79C102.21,118.87,106.21,123,106.13,128.02C105.83,133.41,101.63,137.15,96.73,136.87C91.15,136.61,87.31,132.36,87.55,127.37C87.8,122.39,92.05,118.54,97.04,118.79ZM128.27,118.79C133.76,118.75,137.4,122.3,137.43,127.72C137.46,133.28,134,136.85,128.56,136.87C123.02,136.89,119.37,133.39,119.34,128C119.48,122.39,123.49,118.64,128.27,118.79ZM193.67,111.92C195.13,117.37,197.97,119.28,203.7,119.55C204.64,119.59,205.58,119.75,206.87,119.89V135.58C206.17,135.81,205.46,135.98,204.73,136.1C197.05,136.57,193.54,139.73,192.77,147.43C192.27,152.35,192.31,157.32,191.97,162.26C191.83,167.68,191.34,173.08,190.5,178.44C188.54,188.14,182.48,192.98,172.47,193.57C169.25,193.76,166,193.6,162.53,193.6V179.58C164.4,179.46,166.05,179.3,167.7,179.26C173.68,179.12,175.8,177.19,176.09,171.25C176.41,164.73,176.56,158.19,176.85,151.67C177.27,142.23,179.85,133.81,188.64,127.92C183.61,124.34,179.58,119.99,178.53,114.14C177.26,107.04,176.86,99.79,176.18,92.59C175.84,89,175.86,85.36,175.5,81.77C175.13,77.89,172.46,76.55,168.93,76.46C166.9,76.41,164.87,76.45,162.28,76.45V62.75C178.79,60.01,190.2,65.51,191.26,81.3C191.7,87.93,191.64,94.6,192.06,101.23C192.25,104.84,192.79,108.42,193.67,111.92Z" fill="#FFFFFF"/></g></svg>
